<svg width="131" height="147" viewBox="0 0 131 147" fill="none" xmlns="http://www.w3.org/2000/svg">
<path d="M0 19H128V147H0V19Z" fill="#2C3656"/>
<g filter="url(#filter0_d_419_22)">
<path fill-rule="evenodd" clip-rule="evenodd" d="M106.041 137L31.0455 137.852L31 133.852L105.995 133L106.041 137Z" fill="#F05152"/>
<path fill-rule="evenodd" clip-rule="evenodd" d="M106.041 137L31.0455 137.852L31 133.852L105.995 133L106.041 137Z" fill="black" fill-opacity="0.2"/>
</g>
<g filter="url(#filter1_d_419_22)">
<path d="M65.5909 30.9091H85.2727V91.3636C85.2727 98.1515 83.6515 104.091 80.4091 109.182C77.197 114.273 72.697 118.242 66.9091 121.091C61.1212 123.909 54.3788 125.318 46.6818 125.318C38.9545 125.318 32.197 123.909 26.4091 121.091C20.6212 118.242 16.1212 114.273 12.9091 109.182C9.69697 104.091 8.09091 98.1515 8.09091 91.3636V30.9091H27.7727V89.6818C27.7727 93.2273 28.5455 96.3788 30.0909 99.1364C31.6667 101.894 33.8788 104.061 36.7273 105.636C39.5758 107.212 42.8939 108 46.6818 108C50.5 108 53.8182 107.212 56.6364 105.636C59.4848 104.061 61.6818 101.894 63.2273 99.1364C64.803 96.3788 65.5909 93.2273 65.5909 89.6818V30.9091Z" fill="#30C48D"/>
</g>
<g filter="url(#filter2_d_419_22)">
<path d="M91.7045 95.1761V89.0909H120.375V95.1761H109.688V124H102.392V95.1761H91.7045Z" fill="#30C48D"/>
</g>
<defs>
<filter id="filter0_d_419_22" x="27" y="133" width="83.0406" height="12.852" filterUnits="userSpaceOnUse" color-interpolation-filters="sRGB">
<feFlood flood-opacity="0" result="BackgroundImageFix"/>
<feColorMatrix in="SourceAlpha" type="matrix" values="0 0 0 0 0 0 0 0 0 0 0 0 0 0 0 0 0 0 127 0" result="hardAlpha"/>
<feOffset dy="4"/>
<feGaussianBlur stdDeviation="2"/>
<feComposite in2="hardAlpha" operator="out"/>
<feColorMatrix type="matrix" values="0 0 0 0 0 0 0 0 0 0 0 0 0 0 0 0 0 0 0.25 0"/>
<feBlend mode="normal" in2="BackgroundImageFix" result="effect1_dropShadow_419_22"/>
<feBlend mode="normal" in="SourceGraphic" in2="effect1_dropShadow_419_22" result="shape"/>
</filter>
<filter id="filter1_d_419_22" x="4.09091" y="30.9091" width="85.1818" height="102.409" filterUnits="userSpaceOnUse" color-interpolation-filters="sRGB">
<feFlood flood-opacity="0" result="BackgroundImageFix"/>
<feColorMatrix in="SourceAlpha" type="matrix" values="0 0 0 0 0 0 0 0 0 0 0 0 0 0 0 0 0 0 127 0" result="hardAlpha"/>
<feOffset dy="4"/>
<feGaussianBlur stdDeviation="2"/>
<feComposite in2="hardAlpha" operator="out"/>
<feColorMatrix type="matrix" values="0 0 0 0 0 0 0 0 0 0 0 0 0 0 0 0 0 0 0.25 0"/>
<feBlend mode="normal" in2="BackgroundImageFix" result="effect1_dropShadow_419_22"/>
<feBlend mode="normal" in="SourceGraphic" in2="effect1_dropShadow_419_22" result="shape"/>
</filter>
<filter id="filter2_d_419_22" x="87.7045" y="89.0909" width="36.6705" height="42.9091" filterUnits="userSpaceOnUse" color-interpolation-filters="sRGB">
<feFlood flood-opacity="0" result="BackgroundImageFix"/>
<feColorMatrix in="SourceAlpha" type="matrix" values="0 0 0 0 0 0 0 0 0 0 0 0 0 0 0 0 0 0 127 0" result="hardAlpha"/>
<feOffset dy="4"/>
<feGaussianBlur stdDeviation="2"/>
<feComposite in2="hardAlpha" operator="out"/>
<feColorMatrix type="matrix" values="0 0 0 0 0 0 0 0 0 0 0 0 0 0 0 0 0 0 0.25 0"/>
<feBlend mode="normal" in2="BackgroundImageFix" result="effect1_dropShadow_419_22"/>
<feBlend mode="normal" in="SourceGraphic" in2="effect1_dropShadow_419_22" result="shape"/>
</filter>
</defs>
</svg>
